<?xml version="1.0"?>
<svg xmlns="http://www.w3.org/2000/svg" xmlns:xlink="http://www.w3.org/1999/xlink" version="1.1" width="460px" height="460px" viewBox="0 0 460 460"><defs><rect id="block" width="16" height="16" fill="#000000" fill-opacity="1"/></defs><rect x="0" y="0" width="460" height="460" fill="#ffffff" fill-opacity="1"/><use x="30" y="30" xlink:href="#block"/><use x="46" y="30" xlink:href="#block"/><use x="62" y="30" xlink:href="#block"/><use x="78" y="30" xlink:href="#block"/><use x="94" y="30" xlink:href="#block"/><use x="110" y="30" xlink:href="#block"/><use x="126" y="30" xlink:href="#block"/><use x="158" y="30" xlink:href="#block"/><use x="190" y="30" xlink:href="#block"/><use x="222" y="30" xlink:href="#block"/><use x="254" y="30" xlink:href="#block"/><use x="270" y="30" xlink:href="#block"/><use x="318" y="30" xlink:href="#block"/><use x="334" y="30" xlink:href="#block"/><use x="350" y="30" xlink:href="#block"/><use x="366" y="30" xlink:href="#block"/><use x="382" y="30" xlink:href="#block"/><use x="398" y="30" xlink:href="#block"/><use x="414" y="30" xlink:href="#block"/><use x="30" y="46" xlink:href="#block"/><use x="126" y="46" xlink:href="#block"/><use x="174" y="46" xlink:href="#block"/><use x="190" y="46" xlink:href="#block"/><use x="206" y="46" xlink:href="#block"/><use x="222" y="46" xlink:href="#block"/><use x="238" y="46" xlink:href="#block"/><use x="270" y="46" xlink:href="#block"/><use x="318" y="46" xlink:href="#block"/><use x="414" y="46" xlink:href="#block"/><use x="30" y="62" xlink:href="#block"/><use x="62" y="62" xlink:href="#block"/><use x="78" y="62" xlink:href="#block"/><use x="94" y="62" xlink:href="#block"/><use x="126" y="62" xlink:href="#block"/><use x="158" y="62" xlink:href="#block"/><use x="174" y="62" xlink:href="#block"/><use x="190" y="62" xlink:href="#block"/><use x="270" y="62" xlink:href="#block"/><use x="318" y="62" xlink:href="#block"/><use x="350" y="62" xlink:href="#block"/><use x="366" y="62" xlink:href="#block"/><use x="382" y="62" xlink:href="#block"/><use x="414" y="62" xlink:href="#block"/><use x="30" y="78" xlink:href="#block"/><use x="62" y="78" xlink:href="#block"/><use x="78" y="78" xlink:href="#block"/><use x="94" y="78" xlink:href="#block"/><use x="126" y="78" xlink:href="#block"/><use x="158" y="78" xlink:href="#block"/><use x="174" y="78" xlink:href="#block"/><use x="190" y="78" xlink:href="#block"/><use x="222" y="78" xlink:href="#block"/><use x="238" y="78" xlink:href="#block"/><use x="254" y="78" xlink:href="#block"/><use x="270" y="78" xlink:href="#block"/><use x="318" y="78" xlink:href="#block"/><use x="350" y="78" xlink:href="#block"/><use x="366" y="78" xlink:href="#block"/><use x="382" y="78" xlink:href="#block"/><use x="414" y="78" xlink:href="#block"/><use x="30" y="94" xlink:href="#block"/><use x="62" y="94" xlink:href="#block"/><use x="78" y="94" xlink:href="#block"/><use x="94" y="94" xlink:href="#block"/><use x="126" y="94" xlink:href="#block"/><use x="158" y="94" xlink:href="#block"/><use x="206" y="94" xlink:href="#block"/><use x="222" y="94" xlink:href="#block"/><use x="254" y="94" xlink:href="#block"/><use x="270" y="94" xlink:href="#block"/><use x="286" y="94" xlink:href="#block"/><use x="318" y="94" xlink:href="#block"/><use x="350" y="94" xlink:href="#block"/><use x="366" y="94" xlink:href="#block"/><use x="382" y="94" xlink:href="#block"/><use x="414" y="94" xlink:href="#block"/><use x="30" y="110" xlink:href="#block"/><use x="126" y="110" xlink:href="#block"/><use x="190" y="110" xlink:href="#block"/><use x="206" y="110" xlink:href="#block"/><use x="270" y="110" xlink:href="#block"/><use x="286" y="110" xlink:href="#block"/><use x="318" y="110" xlink:href="#block"/><use x="414" y="110" xlink:href="#block"/><use x="30" y="126" xlink:href="#block"/><use x="46" y="126" xlink:href="#block"/><use x="62" y="126" xlink:href="#block"/><use x="78" y="126" xlink:href="#block"/><use x="94" y="126" xlink:href="#block"/><use x="110" y="126" xlink:href="#block"/><use x="126" y="126" xlink:href="#block"/><use x="158" y="126" xlink:href="#block"/><use x="190" y="126" xlink:href="#block"/><use x="222" y="126" xlink:href="#block"/><use x="254" y="126" xlink:href="#block"/><use x="286" y="126" xlink:href="#block"/><use x="318" y="126" xlink:href="#block"/><use x="334" y="126" xlink:href="#block"/><use x="350" y="126" xlink:href="#block"/><use x="366" y="126" xlink:href="#block"/><use x="382" y="126" xlink:href="#block"/><use x="398" y="126" xlink:href="#block"/><use x="414" y="126" xlink:href="#block"/><use x="190" y="142" xlink:href="#block"/><use x="222" y="142" xlink:href="#block"/><use x="238" y="142" xlink:href="#block"/><use x="254" y="142" xlink:href="#block"/><use x="270" y="142" xlink:href="#block"/><use x="30" y="158" xlink:href="#block"/><use x="46" y="158" xlink:href="#block"/><use x="62" y="158" xlink:href="#block"/><use x="78" y="158" xlink:href="#block"/><use x="126" y="158" xlink:href="#block"/><use x="158" y="158" xlink:href="#block"/><use x="190" y="158" xlink:href="#block"/><use x="206" y="158" xlink:href="#block"/><use x="222" y="158" xlink:href="#block"/><use x="254" y="158" xlink:href="#block"/><use x="302" y="158" xlink:href="#block"/><use x="350" y="158" xlink:href="#block"/><use x="366" y="158" xlink:href="#block"/><use x="382" y="158" xlink:href="#block"/><use x="414" y="158" xlink:href="#block"/><use x="30" y="174" xlink:href="#block"/><use x="46" y="174" xlink:href="#block"/><use x="158" y="174" xlink:href="#block"/><use x="190" y="174" xlink:href="#block"/><use x="222" y="174" xlink:href="#block"/><use x="270" y="174" xlink:href="#block"/><use x="286" y="174" xlink:href="#block"/><use x="302" y="174" xlink:href="#block"/><use x="334" y="174" xlink:href="#block"/><use x="350" y="174" xlink:href="#block"/><use x="414" y="174" xlink:href="#block"/><use x="30" y="190" xlink:href="#block"/><use x="46" y="190" xlink:href="#block"/><use x="62" y="190" xlink:href="#block"/><use x="94" y="190" xlink:href="#block"/><use x="126" y="190" xlink:href="#block"/><use x="174" y="190" xlink:href="#block"/><use x="190" y="190" xlink:href="#block"/><use x="206" y="190" xlink:href="#block"/><use x="222" y="190" xlink:href="#block"/><use x="238" y="190" xlink:href="#block"/><use x="366" y="190" xlink:href="#block"/><use x="382" y="190" xlink:href="#block"/><use x="398" y="190" xlink:href="#block"/><use x="414" y="190" xlink:href="#block"/><use x="30" y="206" xlink:href="#block"/><use x="62" y="206" xlink:href="#block"/><use x="78" y="206" xlink:href="#block"/><use x="94" y="206" xlink:href="#block"/><use x="110" y="206" xlink:href="#block"/><use x="174" y="206" xlink:href="#block"/><use x="190" y="206" xlink:href="#block"/><use x="238" y="206" xlink:href="#block"/><use x="254" y="206" xlink:href="#block"/><use x="270" y="206" xlink:href="#block"/><use x="302" y="206" xlink:href="#block"/><use x="318" y="206" xlink:href="#block"/><use x="334" y="206" xlink:href="#block"/><use x="366" y="206" xlink:href="#block"/><use x="382" y="206" xlink:href="#block"/><use x="414" y="206" xlink:href="#block"/><use x="126" y="222" xlink:href="#block"/><use x="174" y="222" xlink:href="#block"/><use x="190" y="222" xlink:href="#block"/><use x="222" y="222" xlink:href="#block"/><use x="254" y="222" xlink:href="#block"/><use x="270" y="222" xlink:href="#block"/><use x="318" y="222" xlink:href="#block"/><use x="334" y="222" xlink:href="#block"/><use x="350" y="222" xlink:href="#block"/><use x="366" y="222" xlink:href="#block"/><use x="398" y="222" xlink:href="#block"/><use x="414" y="222" xlink:href="#block"/><use x="62" y="238" xlink:href="#block"/><use x="206" y="238" xlink:href="#block"/><use x="222" y="238" xlink:href="#block"/><use x="254" y="238" xlink:href="#block"/><use x="286" y="238" xlink:href="#block"/><use x="334" y="238" xlink:href="#block"/><use x="366" y="238" xlink:href="#block"/><use x="46" y="254" xlink:href="#block"/><use x="62" y="254" xlink:href="#block"/><use x="94" y="254" xlink:href="#block"/><use x="126" y="254" xlink:href="#block"/><use x="174" y="254" xlink:href="#block"/><use x="206" y="254" xlink:href="#block"/><use x="254" y="254" xlink:href="#block"/><use x="286" y="254" xlink:href="#block"/><use x="302" y="254" xlink:href="#block"/><use x="334" y="254" xlink:href="#block"/><use x="350" y="254" xlink:href="#block"/><use x="366" y="254" xlink:href="#block"/><use x="398" y="254" xlink:href="#block"/><use x="30" y="270" xlink:href="#block"/><use x="94" y="270" xlink:href="#block"/><use x="206" y="270" xlink:href="#block"/><use x="238" y="270" xlink:href="#block"/><use x="286" y="270" xlink:href="#block"/><use x="302" y="270" xlink:href="#block"/><use x="398" y="270" xlink:href="#block"/><use x="414" y="270" xlink:href="#block"/><use x="94" y="286" xlink:href="#block"/><use x="126" y="286" xlink:href="#block"/><use x="158" y="286" xlink:href="#block"/><use x="190" y="286" xlink:href="#block"/><use x="222" y="286" xlink:href="#block"/><use x="254" y="286" xlink:href="#block"/><use x="286" y="286" xlink:href="#block"/><use x="302" y="286" xlink:href="#block"/><use x="318" y="286" xlink:href="#block"/><use x="334" y="286" xlink:href="#block"/><use x="350" y="286" xlink:href="#block"/><use x="398" y="286" xlink:href="#block"/><use x="158" y="302" xlink:href="#block"/><use x="174" y="302" xlink:href="#block"/><use x="238" y="302" xlink:href="#block"/><use x="270" y="302" xlink:href="#block"/><use x="286" y="302" xlink:href="#block"/><use x="350" y="302" xlink:href="#block"/><use x="366" y="302" xlink:href="#block"/><use x="382" y="302" xlink:href="#block"/><use x="30" y="318" xlink:href="#block"/><use x="46" y="318" xlink:href="#block"/><use x="62" y="318" xlink:href="#block"/><use x="78" y="318" xlink:href="#block"/><use x="94" y="318" xlink:href="#block"/><use x="110" y="318" xlink:href="#block"/><use x="126" y="318" xlink:href="#block"/><use x="190" y="318" xlink:href="#block"/><use x="238" y="318" xlink:href="#block"/><use x="286" y="318" xlink:href="#block"/><use x="318" y="318" xlink:href="#block"/><use x="350" y="318" xlink:href="#block"/><use x="382" y="318" xlink:href="#block"/><use x="398" y="318" xlink:href="#block"/><use x="414" y="318" xlink:href="#block"/><use x="30" y="334" xlink:href="#block"/><use x="126" y="334" xlink:href="#block"/><use x="206" y="334" xlink:href="#block"/><use x="238" y="334" xlink:href="#block"/><use x="254" y="334" xlink:href="#block"/><use x="270" y="334" xlink:href="#block"/><use x="286" y="334" xlink:href="#block"/><use x="350" y="334" xlink:href="#block"/><use x="398" y="334" xlink:href="#block"/><use x="414" y="334" xlink:href="#block"/><use x="30" y="350" xlink:href="#block"/><use x="62" y="350" xlink:href="#block"/><use x="78" y="350" xlink:href="#block"/><use x="94" y="350" xlink:href="#block"/><use x="126" y="350" xlink:href="#block"/><use x="190" y="350" xlink:href="#block"/><use x="254" y="350" xlink:href="#block"/><use x="270" y="350" xlink:href="#block"/><use x="286" y="350" xlink:href="#block"/><use x="302" y="350" xlink:href="#block"/><use x="318" y="350" xlink:href="#block"/><use x="334" y="350" xlink:href="#block"/><use x="350" y="350" xlink:href="#block"/><use x="382" y="350" xlink:href="#block"/><use x="414" y="350" xlink:href="#block"/><use x="30" y="366" xlink:href="#block"/><use x="62" y="366" xlink:href="#block"/><use x="78" y="366" xlink:href="#block"/><use x="94" y="366" xlink:href="#block"/><use x="126" y="366" xlink:href="#block"/><use x="158" y="366" xlink:href="#block"/><use x="174" y="366" xlink:href="#block"/><use x="190" y="366" xlink:href="#block"/><use x="254" y="366" xlink:href="#block"/><use x="270" y="366" xlink:href="#block"/><use x="286" y="366" xlink:href="#block"/><use x="318" y="366" xlink:href="#block"/><use x="350" y="366" xlink:href="#block"/><use x="398" y="366" xlink:href="#block"/><use x="414" y="366" xlink:href="#block"/><use x="30" y="382" xlink:href="#block"/><use x="62" y="382" xlink:href="#block"/><use x="78" y="382" xlink:href="#block"/><use x="94" y="382" xlink:href="#block"/><use x="126" y="382" xlink:href="#block"/><use x="158" y="382" xlink:href="#block"/><use x="190" y="382" xlink:href="#block"/><use x="254" y="382" xlink:href="#block"/><use x="270" y="382" xlink:href="#block"/><use x="302" y="382" xlink:href="#block"/><use x="318" y="382" xlink:href="#block"/><use x="366" y="382" xlink:href="#block"/><use x="382" y="382" xlink:href="#block"/><use x="398" y="382" xlink:href="#block"/><use x="30" y="398" xlink:href="#block"/><use x="126" y="398" xlink:href="#block"/><use x="158" y="398" xlink:href="#block"/><use x="174" y="398" xlink:href="#block"/><use x="206" y="398" xlink:href="#block"/><use x="222" y="398" xlink:href="#block"/><use x="238" y="398" xlink:href="#block"/><use x="270" y="398" xlink:href="#block"/><use x="302" y="398" xlink:href="#block"/><use x="350" y="398" xlink:href="#block"/><use x="382" y="398" xlink:href="#block"/><use x="398" y="398" xlink:href="#block"/><use x="414" y="398" xlink:href="#block"/><use x="30" y="414" xlink:href="#block"/><use x="46" y="414" xlink:href="#block"/><use x="62" y="414" xlink:href="#block"/><use x="78" y="414" xlink:href="#block"/><use x="94" y="414" xlink:href="#block"/><use x="110" y="414" xlink:href="#block"/><use x="126" y="414" xlink:href="#block"/><use x="158" y="414" xlink:href="#block"/><use x="206" y="414" xlink:href="#block"/><use x="222" y="414" xlink:href="#block"/><use x="270" y="414" xlink:href="#block"/><use x="382" y="414" xlink:href="#block"/><use x="398" y="414" xlink:href="#block"/><use x="414" y="414" xlink:href="#block"/></svg>
